<svg xmlns="http://www.w3.org/2000/svg" viewBox="0 0 200 200" width="200" height="200">
  <!-- Background circle -->
  <circle cx="100" cy="100" r="95" fill="#ffffff" stroke="#1e40af" stroke-width="10"/>
  
  <!-- Traditional Croatian folk pattern - geometric design -->
  <g transform="translate(100,100)">
    <!-- Center flower -->
    <g>
      <!-- Petals -->
      <path d="M0,-30 Q-15,-15 0,0 Q15,-15 0,-30 Z" fill="#dc2626" transform="rotate(0)"/>
      <path d="M0,-30 Q-15,-15 0,0 Q15,-15 0,-30 Z" fill="#dc2626" transform="rotate(72)"/>
      <path d="M0,-30 Q-15,-15 0,0 Q15,-15 0,-30 Z" fill="#dc2626" transform="rotate(144)"/>
      <path d="M0,-30 Q-15,-15 0,0 Q15,-15 0,-30 Z" fill="#dc2626" transform="rotate(216)"/>
      <path d="M0,-30 Q-15,-15 0,0 Q15,-15 0,-30 Z" fill="#dc2626" transform="rotate(288)"/>
      
      <!-- Center circle -->
      <circle cx="0" cy="0" r="8" fill="#fbbf24"/>
    </g>
    
    <!-- Decorative leaves around -->
    <g>
      <path d="M0,-50 Q-8,-58 -16,-50 Q-8,-42 0,-50 Z" fill="#16a34a" transform="rotate(45)"/>
      <path d="M0,-50 Q-8,-58 -16,-50 Q-8,-42 0,-50 Z" fill="#16a34a" transform="rotate(90)"/>
      <path d="M0,-50 Q-8,-58 -16,-50 Q-8,-42 0,-50 Z" fill="#16a34a" transform="rotate(135)"/>
      <path d="M0,-50 Q-8,-58 -16,-50 Q-8,-42 0,-50 Z" fill="#16a34a" transform="rotate(180)"/>
      <path d="M0,-50 Q-8,-58 -16,-50 Q-8,-42 0,-50 Z" fill="#16a34a" transform="rotate(225)"/>
      <path d="M0,-50 Q-8,-58 -16,-50 Q-8,-42 0,-50 Z" fill="#16a34a" transform="rotate(270)"/>
      <path d="M0,-50 Q-8,-58 -16,-50 Q-8,-42 0,-50 Z" fill="#16a34a" transform="rotate(315)"/>
      <path d="M0,-50 Q-8,-58 -16,-50 Q-8,-42 0,-50 Z" fill="#16a34a" transform="rotate(0)"/>
    </g>
    
    <!-- Outer decorative elements -->
    <g>
      <!-- Small circles -->
      <circle cx="0" cy="-70" r="4" fill="#dc2626"/>
      <circle cx="66" cy="-33" r="4" fill="#dc2626"/>
      <circle cx="66" cy="33" r="4" fill="#dc2626"/>
      <circle cx="0" cy="70" r="4" fill="#dc2626"/>
      <circle cx="-66" cy="33" r="4" fill="#dc2626"/>
      <circle cx="-66" cy="-33" r="4" fill="#dc2626"/>
      
      <!-- Small decorative stars -->
      <g transform="translate(0,-85)">
        <path d="M0,-5 L1.5,-1.5 L5,0 L1.5,1.5 L0,5 L-1.5,1.5 L-5,0 L-1.5,-1.5 Z" fill="#fbbf24"/>
      </g>
      <g transform="translate(80,-40)">
        <path d="M0,-5 L1.5,-1.5 L5,0 L1.5,1.5 L0,5 L-1.5,1.5 L-5,0 L-1.5,-1.5 Z" fill="#fbbf24"/>
      </g>
      <g transform="translate(80,40)">
        <path d="M0,-5 L1.5,-1.5 L5,0 L1.5,1.5 L0,5 L-1.5,1.5 L-5,0 L-1.5,-1.5 Z" fill="#fbbf24"/>
      </g>
      <g transform="translate(0,85)">
        <path d="M0,-5 L1.5,-1.5 L5,0 L1.5,1.5 L0,5 L-1.5,1.5 L-5,0 L-1.5,-1.5 Z" fill="#fbbf24"/>
      </g>
      <g transform="translate(-80,40)">
        <path d="M0,-5 L1.5,-1.5 L5,0 L1.5,1.5 L0,5 L-1.5,1.5 L-5,0 L-1.5,-1.5 Z" fill="#fbbf24"/>
      </g>
      <g transform="translate(-80,-40)">
        <path d="M0,-5 L1.5,-1.5 L5,0 L1.5,1.5 L0,5 L-1.5,1.5 L-5,0 L-1.5,-1.5 Z" fill="#fbbf24"/>
      </g>
    </g>
  </g>
  
  <!-- Traditional Croatian border pattern -->
  <g>
    <path d="M20,20 L30,30 L20,40 L10,30 Z" fill="#1e40af"/>
    <path d="M170,20 L180,30 L170,40 L160,30 Z" fill="#1e40af"/>
    <path d="M20,170 L30,180 L20,190 L10,180 Z" fill="#1e40af"/>
    <path d="M170,170 L180,180 L170,190 L160,180 Z" fill="#1e40af"/>
  </g>
</svg>